<svg width="128" height="278" viewBox="0 0 128 278" fill="none" xmlns="http://www.w3.org/2000/svg">
<rect x="0.5" y="0.5" width="127" height="277" rx="10.5" fill="#131313" stroke="url(#paint0_linear_224_1311)"/>
<mask id="mask0_224_1311" style="mask-type:alpha" maskUnits="userSpaceOnUse" x="1" y="1" width="126" height="65">
<rect x="1.5" y="1.5" width="125" height="64" rx="9.5" fill="#131313" stroke="url(#paint1_linear_224_1311)"/>
</mask>
<g mask="url(#mask0_224_1311)">
<path d="M36.9235 35.0317C36.3278 35.1913 35.6932 35.1079 35.159 34.7997C34.6248 34.4915 34.2349 33.9838 34.075 33.3882L27.2788 8.02425C27.151 7.43987 27.2532 6.8287 27.5643 6.31773C27.8753 5.80677 28.3713 5.43528 28.9491 5.28046C29.5269 5.12563 30.1422 5.19937 30.667 5.48635C31.1919 5.77333 31.586 6.25149 31.7675 6.82149L38.5638 32.1854C38.7228 32.7803 38.6395 33.4141 38.332 33.9476C38.0245 34.4812 37.518 34.8711 36.9235 35.0317Z" fill="#202020"/>
<path d="M47.1122 37.1175C46.5165 37.2768 45.8818 37.193 45.3478 36.8845C44.8138 36.576 44.4242 36.0681 44.2646 35.4724L35.0609 1.12374C34.9655 0.824005 34.9318 0.508027 34.962 0.194915C34.9921 -0.118198 35.0855 -0.421939 35.2364 -0.697939C35.3873 -0.97394 35.5926 -1.21646 35.8399 -1.41084C36.0873 -1.60522 36.3714 -1.74742 36.6753 -1.82884C36.9791 -1.91025 37.2963 -1.92919 37.6077 -1.88451C37.9191 -1.83983 38.2181 -1.73246 38.4868 -1.56889C38.7555 -1.40532 38.9882 -1.18896 39.1709 -0.932875C39.3536 -0.676793 39.4824 -0.38632 39.5497 -0.0790213L47.3003 28.8468L50.5863 23.1553L46.4459 7.70302C46.3343 7.2847 46.3417 6.84354 46.4673 6.42921C46.5929 6.01489 46.8317 5.64387 47.1568 5.35796L54.9389 -1.53827C55.2354 -1.80128 55.5942 -1.98411 55.9813 -2.06939C56.3684 -2.15467 56.7708 -2.13958 57.1504 -2.02553C57.53 -1.91149 57.8742 -1.70229 58.1501 -1.4178C58.4261 -1.13332 58.6248 -0.782994 58.7273 -0.400112L65.5229 24.9614C65.6507 25.5458 65.5484 26.1569 65.2374 26.6679C64.9263 27.1789 64.4304 27.5503 63.8525 27.7052C63.2747 27.86 62.6595 27.7863 62.1346 27.4993C61.6097 27.2123 61.2156 26.7341 61.0341 26.1641L55.2118 4.4349L51.325 7.88447L55.3416 22.8745C55.4207 23.1694 55.4409 23.477 55.4011 23.7797C55.3613 24.0824 55.2622 24.3743 55.1096 24.6387L48.5262 36.0326C48.3735 36.2976 48.17 36.5299 47.9274 36.716C47.6847 36.9022 47.4077 37.0387 47.1122 37.1175Z" fill="#202020"/>
<path d="M71.6601 20.9091C71.0646 21.0687 70.43 20.9851 69.896 20.6768C69.3621 20.3685 68.9724 19.8608 68.8128 19.2652L64.4244 2.88729C64.2966 2.3029 64.3988 1.69174 64.7099 1.18077C65.0209 0.669805 65.5169 0.298319 66.0947 0.143493C66.6725 -0.0113323 67.2878 0.0624057 67.8127 0.349387C68.3375 0.636369 68.7317 1.11453 68.9132 1.68453L73.3016 18.0624C73.4607 18.6576 73.3773 19.2915 73.0695 19.8252C72.7618 20.3589 72.2549 20.7487 71.6601 20.9091Z" fill="#202020"/>
<path d="M79.3112 13.5238C78.7157 13.6833 78.0811 13.5998 77.5471 13.2915C77.0131 12.9832 76.6235 12.4754 76.4639 11.8799L74.7411 5.45003C74.6132 4.86565 74.7155 4.25448 75.0265 3.74352C75.3376 3.23255 75.8336 2.86106 76.4114 2.70624C76.9892 2.55141 77.6044 2.62515 78.1293 2.91213C78.6542 3.19911 79.0483 3.67727 79.2298 4.24727L80.9527 10.6771C81.1118 11.2723 81.0283 11.9062 80.7206 12.4399C80.4129 12.9736 79.906 13.3634 79.3112 13.5238Z" fill="#202020"/>
<path d="M12.617 52.1406C12.0214 52.3002 11.3869 52.2167 10.8529 51.9084C10.3189 51.6001 9.9293 51.0923 9.76972 50.4967L8.99215 47.5948C8.86434 47.0104 8.96658 46.3993 9.27764 45.8883C9.5887 45.3773 10.0847 45.0058 10.6625 44.851C11.2403 44.6962 11.8555 44.7699 12.3804 45.0569C12.9053 45.3439 13.2994 45.822 13.4809 46.392L14.2585 49.294C14.4176 49.8891 14.3341 50.5231 14.0264 51.0567C13.7187 51.5904 13.2118 51.9802 12.617 52.1406Z" fill="#202020"/>
<path d="M66.5256 37.6959C65.9302 37.8547 65.296 37.7708 64.7624 37.4625C64.2288 37.1543 63.8393 36.6468 63.6795 36.0517L62.9019 33.1497C62.7741 32.5654 62.8764 31.9542 63.1874 31.4432C63.4985 30.9323 63.9944 30.5608 64.5723 30.4059C65.1501 30.2511 65.7653 30.3249 66.2902 30.6118C66.8151 30.8988 67.2092 31.377 67.3907 31.947L68.1683 34.8489C68.3278 35.4443 68.2444 36.0786 67.9363 36.6125C67.6283 37.1463 67.1209 37.536 66.5256 37.6959Z" fill="#202020"/>
<path d="M39.8128 45.8144C39.2169 45.9741 38.582 45.8905 38.0477 45.582C37.5134 45.2736 37.1236 44.7655 36.9639 44.1696L36.1873 41.2713C36.0595 40.6869 36.1618 40.0758 36.4728 39.5648C36.7839 39.0538 37.2798 38.6824 37.8577 38.5275C38.4355 38.3727 39.0507 38.4464 39.5756 38.7334C40.1005 39.0204 40.4946 39.4986 40.6761 40.0686L41.4533 42.9693C41.612 43.5641 41.5285 44.1975 41.2209 44.7308C40.9134 45.2641 40.4071 45.6538 39.8128 45.8144Z" fill="#202020"/>
<path d="M11.2101 10.9513C10.6145 11.1109 9.97995 11.0273 9.44598 10.719C8.91201 10.4108 8.52238 9.90297 8.36279 9.30741L7.58555 6.4067C7.49011 6.10696 7.45645 5.79099 7.48661 5.47787C7.51678 5.16476 7.61014 4.86102 7.76105 4.58502C7.91196 4.30902 8.11728 4.0665 8.3646 3.87212C8.61191 3.67773 8.89609 3.53554 9.19993 3.45412C9.50377 3.37271 9.82097 3.35377 10.1323 3.39845C10.4437 3.44313 10.7428 3.5505 11.0115 3.71407C11.2802 3.87764 11.5129 4.094 11.6956 4.35008C11.8783 4.60617 12.0071 4.89664 12.0743 5.20394L12.8516 8.10465C13.0107 8.69978 12.9272 9.33374 12.6195 9.86741C12.3117 10.4011 11.8049 10.7909 11.2101 10.9513Z" fill="#202020"/>
<path d="M20.6765 46.2805C20.0809 46.4401 19.4463 46.3566 18.9124 46.0483C18.3784 45.74 17.9887 45.2322 17.8292 44.6366L17.0516 41.7347C16.9238 41.1503 17.026 40.5392 17.3371 40.0282C17.6481 39.5172 18.1441 39.1457 18.7219 38.9909C19.2997 38.8361 19.915 38.9098 20.4399 39.1968C20.9647 39.4838 21.3589 39.9619 21.5404 40.5319L22.3179 43.4339C22.477 44.029 22.3936 44.663 22.0859 45.1966C21.7781 45.7303 21.2713 46.1201 20.6765 46.2805Z" fill="#202020"/>
<path d="M47.1566 1.31962C46.5609 1.47923 45.9263 1.39576 45.3921 1.08756C44.8579 0.779358 44.468 0.271651 44.3081 -0.323942L43.5309 -3.22465C43.4354 -3.52438 43.4018 -3.84036 43.4319 -4.15347C43.4621 -4.46659 43.5555 -4.77033 43.7064 -5.04633C43.8573 -5.32233 44.0626 -5.56485 44.3099 -5.75923C44.5572 -5.95361 44.8414 -6.09581 45.1452 -6.17723C45.4491 -6.25864 45.7663 -6.27758 46.0777 -6.2329C46.389 -6.18822 46.6881 -6.08085 46.9568 -5.91728C47.2255 -5.75371 47.4582 -5.53734 47.6409 -5.28126C47.8236 -5.02518 47.9524 -4.73471 48.0196 -4.42741L48.7969 -1.5267C48.9563 -0.931763 48.8731 -0.29788 48.5656 0.235777C48.258 0.769433 47.7513 1.15924 47.1566 1.31962Z" fill="#202020"/>
<path d="M56.623 36.6486C56.0273 36.8082 55.3926 36.7247 54.8585 36.4165C54.3243 36.1083 53.9344 35.6006 53.7745 35.005L52.9969 32.1031C52.8691 31.5187 52.9713 30.9076 53.2824 30.3966C53.5935 29.8856 54.0894 29.5141 54.6672 29.3593C55.245 29.2045 55.8603 29.2782 56.3852 29.5652C56.91 29.8522 57.3042 30.3304 57.4857 30.9004L58.2632 33.8023C58.4227 34.3972 58.3395 35.0311 58.0319 35.5648C57.7244 36.0984 57.2177 36.4882 56.623 36.6486Z" fill="#202020"/>
<path d="M29.1427 41.9326C28.8475 42.0118 28.5396 42.032 28.2366 41.992C27.9336 41.9521 27.6414 41.8527 27.3769 41.6997L15.9846 35.1223C15.7202 34.9696 15.4885 34.7664 15.3027 34.5241C15.1168 34.2819 14.9805 34.0054 14.9016 33.7105L10.8843 18.718L5.79356 17.674L11.6165 39.4056C11.7443 39.99 11.6421 40.6012 11.331 41.1121C11.02 41.6231 10.524 41.9946 9.94621 42.1494C9.3684 42.3042 8.75314 42.2305 8.22828 41.9435C7.70341 41.6565 7.30928 41.1784 7.12778 40.6084L0.331538 15.2445C0.230196 14.8626 0.227858 14.4611 0.324749 14.0781C0.42164 13.695 0.614561 13.343 0.885296 13.0552C1.15603 12.7674 1.49565 12.5534 1.87208 12.4333C2.24851 12.3133 2.64933 12.2911 3.0367 12.369L13.2267 14.4496C13.6499 14.536 14.0407 14.7386 14.3552 15.0346C14.6697 15.3307 14.8955 15.7085 15.0073 16.1258L19.1471 31.5756L24.8386 34.8616L17.0889 5.93941C16.9935 5.63968 16.9598 5.3237 16.99 5.01059C17.0201 4.69748 17.1135 4.39373 17.2644 4.11773C17.4153 3.84173 17.6206 3.59921 17.8679 3.40483C18.1153 3.21045 18.3994 3.06825 18.7033 2.98684C19.0071 2.90542 19.3243 2.88648 19.6357 2.93116C19.9471 2.97584 20.2461 3.08321 20.5148 3.24678C20.7835 3.41035 21.0162 3.62672 21.1989 3.8828C21.3816 4.13888 21.5104 4.42935 21.5777 4.73665L30.7814 39.0854C30.941 39.681 30.8575 40.3157 30.5493 40.8499C30.2411 41.384 29.7334 41.7739 29.1378 41.9339L29.1427 41.9326Z" fill="#202020"/>
<path d="M-0.220601 40.1693C-0.816281 40.3289 -1.45096 40.2454 -1.98512 39.9372C-2.51927 39.629 -2.90918 39.1213 -3.06911 38.5257L-7.45756 22.1478C-7.58537 21.5634 -7.48313 20.9522 -7.17207 20.4413C-6.86101 19.9303 -6.36505 19.5588 -5.78724 19.404C-5.20942 19.2492 -4.59417 19.3229 -4.0693 19.6099C-3.54443 19.8969 -3.1503 20.375 -2.9688 20.945L1.41965 37.3229C1.57906 37.9179 1.49587 38.5518 1.18834 39.0854C0.880811 39.6191 0.374078 40.0089 -0.220601 40.1693Z" fill="#202020"/>
</g>
<g filter="url(#filter0_d_224_1311)">
<rect x="14" y="78" width="100.67" height="21.5502" rx="5" fill="url(#paint2_linear_224_1311)" shape-rendering="crispEdges"/>
</g>
<g filter="url(#filter1_d_224_1311)">
<rect x="14" y="104.629" width="100.67" height="21.5502" rx="5" fill="url(#paint3_linear_224_1311)" shape-rendering="crispEdges"/>
</g>
<g filter="url(#filter2_d_224_1311)">
<rect x="14" y="131" width="100.67" height="21.5502" rx="5" fill="url(#paint4_linear_224_1311)" shape-rendering="crispEdges"/>
</g>
<g filter="url(#filter3_d_224_1311)">
<rect x="14" y="157.742" width="100.67" height="21.5502" rx="5" fill="url(#paint5_linear_224_1311)" shape-rendering="crispEdges"/>
</g>
<g filter="url(#filter4_d_224_1311)">
<rect x="14" y="184" width="100.67" height="21.5502" rx="5" fill="url(#paint6_linear_224_1311)" shape-rendering="crispEdges"/>
</g>
<path d="M1 250C1 238.954 9.95431 230 21 230H106.607C117.653 230 126.607 238.954 126.607 250V276.487H1V250Z" fill="url(#paint7_linear_224_1311)"/>
<defs>
<filter id="filter0_d_224_1311" x="13" y="78" width="102.67" height="23.5503" filterUnits="userSpaceOnUse" color-interpolation-filters="sRGB">
<feFlood flood-opacity="0" result="BackgroundImageFix"/>
<feColorMatrix in="SourceAlpha" type="matrix" values="0 0 0 0 0 0 0 0 0 0 0 0 0 0 0 0 0 0 127 0" result="hardAlpha"/>
<feOffset dy="1"/>
<feGaussianBlur stdDeviation="0.5"/>
<feComposite in2="hardAlpha" operator="out"/>
<feColorMatrix type="matrix" values="0 0 0 0 0 0 0 0 0 0 0 0 0 0 0 0 0 0 0.2 0"/>
<feBlend mode="normal" in2="BackgroundImageFix" result="effect1_dropShadow_224_1311"/>
<feBlend mode="normal" in="SourceGraphic" in2="effect1_dropShadow_224_1311" result="shape"/>
</filter>
<filter id="filter1_d_224_1311" x="13" y="104.629" width="102.67" height="23.5503" filterUnits="userSpaceOnUse" color-interpolation-filters="sRGB">
<feFlood flood-opacity="0" result="BackgroundImageFix"/>
<feColorMatrix in="SourceAlpha" type="matrix" values="0 0 0 0 0 0 0 0 0 0 0 0 0 0 0 0 0 0 127 0" result="hardAlpha"/>
<feOffset dy="1"/>
<feGaussianBlur stdDeviation="0.5"/>
<feComposite in2="hardAlpha" operator="out"/>
<feColorMatrix type="matrix" values="0 0 0 0 0 0 0 0 0 0 0 0 0 0 0 0 0 0 0.2 0"/>
<feBlend mode="normal" in2="BackgroundImageFix" result="effect1_dropShadow_224_1311"/>
<feBlend mode="normal" in="SourceGraphic" in2="effect1_dropShadow_224_1311" result="shape"/>
</filter>
<filter id="filter2_d_224_1311" x="13" y="131" width="102.67" height="23.5503" filterUnits="userSpaceOnUse" color-interpolation-filters="sRGB">
<feFlood flood-opacity="0" result="BackgroundImageFix"/>
<feColorMatrix in="SourceAlpha" type="matrix" values="0 0 0 0 0 0 0 0 0 0 0 0 0 0 0 0 0 0 127 0" result="hardAlpha"/>
<feOffset dy="1"/>
<feGaussianBlur stdDeviation="0.5"/>
<feComposite in2="hardAlpha" operator="out"/>
<feColorMatrix type="matrix" values="0 0 0 0 0 0 0 0 0 0 0 0 0 0 0 0 0 0 0.2 0"/>
<feBlend mode="normal" in2="BackgroundImageFix" result="effect1_dropShadow_224_1311"/>
<feBlend mode="normal" in="SourceGraphic" in2="effect1_dropShadow_224_1311" result="shape"/>
</filter>
<filter id="filter3_d_224_1311" x="13" y="157.742" width="102.67" height="23.5503" filterUnits="userSpaceOnUse" color-interpolation-filters="sRGB">
<feFlood flood-opacity="0" result="BackgroundImageFix"/>
<feColorMatrix in="SourceAlpha" type="matrix" values="0 0 0 0 0 0 0 0 0 0 0 0 0 0 0 0 0 0 127 0" result="hardAlpha"/>
<feOffset dy="1"/>
<feGaussianBlur stdDeviation="0.5"/>
<feComposite in2="hardAlpha" operator="out"/>
<feColorMatrix type="matrix" values="0 0 0 0 0 0 0 0 0 0 0 0 0 0 0 0 0 0 0.2 0"/>
<feBlend mode="normal" in2="BackgroundImageFix" result="effect1_dropShadow_224_1311"/>
<feBlend mode="normal" in="SourceGraphic" in2="effect1_dropShadow_224_1311" result="shape"/>
</filter>
<filter id="filter4_d_224_1311" x="13" y="184" width="102.67" height="23.5503" filterUnits="userSpaceOnUse" color-interpolation-filters="sRGB">
<feFlood flood-opacity="0" result="BackgroundImageFix"/>
<feColorMatrix in="SourceAlpha" type="matrix" values="0 0 0 0 0 0 0 0 0 0 0 0 0 0 0 0 0 0 127 0" result="hardAlpha"/>
<feOffset dy="1"/>
<feGaussianBlur stdDeviation="0.5"/>
<feComposite in2="hardAlpha" operator="out"/>
<feColorMatrix type="matrix" values="0 0 0 0 0 0 0 0 0 0 0 0 0 0 0 0 0 0 0.2 0"/>
<feBlend mode="normal" in2="BackgroundImageFix" result="effect1_dropShadow_224_1311"/>
<feBlend mode="normal" in="SourceGraphic" in2="effect1_dropShadow_224_1311" result="shape"/>
</filter>
<linearGradient id="paint0_linear_224_1311" x1="1" y1="1" x2="127" y2="277" gradientUnits="userSpaceOnUse">
<stop stop-color="#202020"/>
<stop offset="1" stop-color="#202020"/>
</linearGradient>
<linearGradient id="paint1_linear_224_1311" x1="1" y1="1" x2="9.34839" y2="78.6492" gradientUnits="userSpaceOnUse">
<stop stop-color="white" stop-opacity="0.1"/>
<stop offset="1" stop-color="white" stop-opacity="0.05"/>
</linearGradient>
<linearGradient id="paint2_linear_224_1311" x1="14" y1="78" x2="114.67" y2="106.631" gradientUnits="userSpaceOnUse">
<stop stop-color="#212121" stop-opacity="0.6"/>
<stop offset="1" stop-color="#212121" stop-opacity="0.2"/>
</linearGradient>
<linearGradient id="paint3_linear_224_1311" x1="14" y1="104.629" x2="114.67" y2="133.26" gradientUnits="userSpaceOnUse">
<stop stop-color="#212121" stop-opacity="0.6"/>
<stop offset="1" stop-color="#212121" stop-opacity="0.2"/>
</linearGradient>
<linearGradient id="paint4_linear_224_1311" x1="14" y1="131" x2="114.67" y2="152.55" gradientUnits="userSpaceOnUse">
<stop stop-color="#212121" stop-opacity="0.6"/>
<stop offset="1" stop-color="#212121" stop-opacity="0.2"/>
</linearGradient>
<linearGradient id="paint5_linear_224_1311" x1="14" y1="157.742" x2="114.67" y2="179.293" gradientUnits="userSpaceOnUse">
<stop stop-color="#212121" stop-opacity="0.6"/>
<stop offset="1" stop-color="#212121" stop-opacity="0.2"/>
</linearGradient>
<linearGradient id="paint6_linear_224_1311" x1="14" y1="184" x2="114.67" y2="205.55" gradientUnits="userSpaceOnUse">
<stop stop-color="#212121" stop-opacity="0.6"/>
<stop offset="1" stop-color="#212121" stop-opacity="0.2"/>
</linearGradient>
<linearGradient id="paint7_linear_224_1311" x1="63.8035" y1="230" x2="63.8035" y2="276.487" gradientUnits="userSpaceOnUse">
<stop stop-color="white" stop-opacity="0.04"/>
<stop offset="1" stop-color="#1C1C1C" stop-opacity="0"/>
</linearGradient>
</defs>
</svg>
