<svg width="126" height="276" viewBox="0 0 126 276" fill="none" xmlns="http://www.w3.org/2000/svg">
<rect width="126" height="276" rx="10" fill="white"/>
<mask id="mask0_224_1354" style="mask-type:alpha" maskUnits="userSpaceOnUse" x="0" y="0" width="126" height="65">
<rect width="126" height="65" rx="10" fill="white"/>
</mask>
<g mask="url(#mask0_224_1354)">
<path d="M33.9235 34.0317C33.3278 34.1913 32.6932 34.1079 32.159 33.7997C31.6248 33.4915 31.2349 32.9838 31.075 32.3882L24.2788 7.02425C24.151 6.43987 24.2532 5.8287 24.5643 5.31773C24.8753 4.80677 25.3713 4.43528 25.9491 4.28046C26.5269 4.12563 27.1422 4.19937 27.667 4.48635C28.1919 4.77333 28.586 5.25149 28.7675 5.82149L35.5638 31.1854C35.7228 31.7803 35.6395 32.4141 35.332 32.9476C35.0245 33.4812 34.518 33.8711 33.9235 34.0317Z" fill="#EDEDED"/>
<path d="M44.1122 36.1175C43.5165 36.2768 42.8818 36.193 42.3478 35.8845C41.8138 35.576 41.4242 35.0681 41.2646 34.4724L32.0609 0.123738C31.9655 -0.175995 31.9318 -0.491973 31.962 -0.805085C31.9921 -1.1182 32.0855 -1.42194 32.2364 -1.69794C32.3873 -1.97394 32.5926 -2.21646 32.8399 -2.41084C33.0873 -2.60522 33.3714 -2.74742 33.6753 -2.82884C33.9791 -2.91025 34.2963 -2.92919 34.6077 -2.88451C34.9191 -2.83983 35.2181 -2.73246 35.4868 -2.56889C35.7555 -2.40532 35.9882 -2.18896 36.1709 -1.93287C36.3536 -1.67679 36.4824 -1.38632 36.5497 -1.07902L44.3003 27.8468L47.5863 22.1553L43.4459 6.70302C43.3343 6.2847 43.3417 5.84354 43.4673 5.42921C43.5929 5.01489 43.8317 4.64387 44.1568 4.35796L51.9389 -2.53827C52.2354 -2.80128 52.5942 -2.98411 52.9813 -3.06939C53.3684 -3.15467 53.7708 -3.13958 54.1504 -3.02553C54.53 -2.91149 54.8742 -2.70229 55.1501 -2.4178C55.4261 -2.13332 55.6248 -1.78299 55.7273 -1.40011L62.5229 23.9614C62.6507 24.5458 62.5484 25.1569 62.2374 25.6679C61.9263 26.1789 61.4304 26.5503 60.8525 26.7052C60.2747 26.86 59.6595 26.7863 59.1346 26.4993C58.6097 26.2123 58.2156 25.7341 58.0341 25.1641L52.2118 3.4349L48.325 6.88447L52.3416 21.8745C52.4207 22.1694 52.4409 22.477 52.4011 22.7797C52.3613 23.0824 52.2622 23.3743 52.1096 23.6387L45.5262 35.0326C45.3735 35.2976 45.17 35.5299 44.9274 35.716C44.6847 35.9022 44.4077 36.0387 44.1122 36.1175Z" fill="#EDEDED"/>
<path d="M68.6601 19.9091C68.0646 20.0687 67.43 19.9851 66.896 19.6768C66.3621 19.3685 65.9724 18.8608 65.8128 18.2652L61.4244 1.88729C61.2966 1.3029 61.3988 0.691739 61.7099 0.180772C62.0209 -0.330195 62.5169 -0.701681 63.0947 -0.856507C63.6725 -1.01133 64.2878 -0.937594 64.8127 -0.650613C65.3375 -0.363631 65.7317 0.11453 65.9132 0.68453L70.3016 17.0624C70.4607 17.6576 70.3773 18.2915 70.0695 18.8252C69.7618 19.3589 69.2549 19.7487 68.6601 19.9091Z" fill="#EDEDED"/>
<path d="M76.3112 12.5238C75.7157 12.6833 75.0811 12.5998 74.5471 12.2915C74.0131 11.9832 73.6235 11.4754 73.4639 10.8799L71.7411 4.45003C71.6132 3.86565 71.7155 3.25448 72.0265 2.74352C72.3376 2.23255 72.8336 1.86106 73.4114 1.70624C73.9892 1.55141 74.6044 1.62515 75.1293 1.91213C75.6542 2.19911 76.0483 2.67727 76.2298 3.24727L77.9527 9.67712C78.1118 10.2723 78.0283 10.9062 77.7206 11.4399C77.4129 11.9736 76.906 12.3634 76.3112 12.5238Z" fill="#EDEDED"/>
<path d="M9.61701 51.1406C9.02144 51.3002 8.38688 51.2167 7.8529 50.9084C7.31893 50.6001 6.9293 50.0923 6.76972 49.4967L5.99215 46.5948C5.86434 46.0104 5.96658 45.3993 6.27764 44.8883C6.5887 44.3773 7.08465 44.0058 7.66247 43.851C8.24029 43.6962 8.85554 43.7699 9.38041 44.0569C9.90528 44.3439 10.2994 44.822 10.4809 45.392L11.2585 48.294C11.4176 48.8891 11.3341 49.5231 11.0264 50.0567C10.7187 50.5904 10.2118 50.9802 9.61701 51.1406Z" fill="#EDEDED"/>
<path d="M63.5256 36.6959C62.9302 36.8547 62.296 36.7708 61.7624 36.4625C61.2288 36.1543 60.8393 35.6468 60.6795 35.0517L59.9019 32.1497C59.7741 31.5654 59.8764 30.9542 60.1874 30.4432C60.4985 29.9323 60.9944 29.5608 61.5723 29.4059C62.1501 29.2511 62.7653 29.3249 63.2902 29.6118C63.8151 29.8988 64.2092 30.377 64.3907 30.947L65.1683 33.8489C65.3278 34.4443 65.2444 35.0786 64.9363 35.6125C64.6283 36.1463 64.1209 36.536 63.5256 36.6959Z" fill="#EDEDED"/>
<path d="M36.8128 44.8144C36.2169 44.9741 35.582 44.8905 35.0477 44.582C34.5134 44.2736 34.1236 43.7655 33.9639 43.1696L33.1873 40.2713C33.0595 39.6869 33.1618 39.0758 33.4728 38.5648C33.7839 38.0538 34.2798 37.6824 34.8577 37.5275C35.4355 37.3727 36.0507 37.4464 36.5756 37.7334C37.1005 38.0204 37.4946 38.4986 37.6761 39.0686L38.4533 41.9693C38.612 42.5641 38.5285 43.1975 38.2209 43.7308C37.9134 44.2641 37.4071 44.6538 36.8128 44.8144Z" fill="#EDEDED"/>
<path d="M8.21009 9.95129C7.61452 10.1109 6.97995 10.0273 6.44598 9.71904C5.91201 9.41076 5.52238 8.90297 5.36279 8.30741L4.58555 5.4067C4.49011 5.10696 4.45645 4.79099 4.48661 4.47787C4.51678 4.16476 4.61014 3.86102 4.76105 3.58502C4.91196 3.30902 5.11728 3.0665 5.3646 2.87212C5.61191 2.67773 5.89609 2.53554 6.19993 2.45412C6.50377 2.37271 6.82098 2.35377 7.13235 2.39845C7.44372 2.44313 7.7428 2.5505 8.01149 2.71407C8.28018 2.87764 8.5129 3.094 8.69558 3.35008C8.87826 3.60617 9.0071 3.89664 9.07431 4.20394L9.85155 7.10465C10.0107 7.69978 9.92721 8.33374 9.61948 8.86741C9.31175 9.40108 8.80488 9.79089 8.21009 9.95129Z" fill="#EDEDED"/>
<path d="M17.6765 45.2805C17.0809 45.4401 16.4463 45.3566 15.9124 45.0483C15.3784 44.74 14.9887 44.2322 14.8292 43.6366L14.0516 40.7347C13.9238 40.1503 14.026 39.5392 14.3371 39.0282C14.6481 38.5172 15.1441 38.1457 15.7219 37.9909C16.2997 37.8361 16.915 37.9098 17.4399 38.1968C17.9647 38.4838 18.3589 38.9619 18.5404 39.5319L19.3179 42.4339C19.477 43.029 19.3936 43.663 19.0859 44.1966C18.7781 44.7303 18.2713 45.1201 17.6765 45.2805Z" fill="#EDEDED"/>
<path d="M44.1566 0.31962C43.5609 0.479232 42.9263 0.395762 42.3921 0.0875599C41.8579 -0.220642 41.468 -0.728348 41.3081 -1.32394L40.5309 -4.22465C40.4354 -4.52438 40.4018 -4.84036 40.4319 -5.15347C40.4621 -5.46659 40.5555 -5.77033 40.7064 -6.04633C40.8573 -6.32233 41.0626 -6.56485 41.3099 -6.75923C41.5572 -6.95361 41.8414 -7.09581 42.1452 -7.17723C42.4491 -7.25864 42.7663 -7.27758 43.0777 -7.2329C43.389 -7.18822 43.6881 -7.08085 43.9568 -6.91728C44.2255 -6.75371 44.4582 -6.53734 44.6409 -6.28126C44.8236 -6.02518 44.9524 -5.73471 45.0196 -5.42741L45.7969 -2.5267C45.9563 -1.93176 45.8731 -1.29788 45.5656 -0.764223C45.258 -0.230567 44.7513 0.159243 44.1566 0.31962Z" fill="#EDEDED"/>
<path d="M53.623 35.6486C53.0273 35.8082 52.3926 35.7247 51.8585 35.4165C51.3243 35.1083 50.9344 34.6006 50.7745 34.005L49.9969 31.1031C49.8691 30.5187 49.9713 29.9076 50.2824 29.3966C50.5935 28.8856 51.0894 28.5141 51.6672 28.3593C52.245 28.2045 52.8603 28.2782 53.3852 28.5652C53.91 28.8522 54.3042 29.3304 54.4857 29.9004L55.2632 32.8023C55.4227 33.3972 55.3395 34.0311 55.0319 34.5648C54.7244 35.0984 54.2177 35.4882 53.623 35.6486Z" fill="#EDEDED"/>
<path d="M26.1427 40.9326C25.8475 41.0118 25.5396 41.032 25.2366 40.992C24.9336 40.9521 24.6414 40.8527 24.3769 40.6997L12.9846 34.1223C12.7202 33.9696 12.4885 33.7664 12.3027 33.5241C12.1168 33.2819 11.9805 33.0054 11.9016 32.7105L7.88434 17.718L2.79356 16.674L8.61654 38.4056C8.74435 38.99 8.6421 39.6012 8.33105 40.1121C8.01999 40.6231 7.52403 40.9946 6.94622 41.1494C6.3684 41.3042 5.75314 41.2305 5.22828 40.9435C4.70341 40.6565 4.30928 40.1784 4.12778 39.6084L-2.66846 14.2445C-2.7698 13.8626 -2.77214 13.4611 -2.67525 13.0781C-2.57836 12.695 -2.38544 12.343 -2.1147 12.0552C-1.84397 11.7674 -1.50435 11.5534 -1.12792 11.4333C-0.751495 11.3133 -0.350673 11.2911 0.0366961 11.369L10.2267 13.4496C10.6499 13.536 11.0407 13.7386 11.3552 14.0346C11.6697 14.3307 11.8955 14.7085 12.0073 15.1258L16.1471 30.5756L21.8386 33.8616L14.0889 4.93941C13.9935 4.63968 13.9598 4.3237 13.99 4.01059C14.0201 3.69748 14.1135 3.39373 14.2644 3.11773C14.4153 2.84173 14.6206 2.59921 14.8679 2.40483C15.1153 2.21045 15.3994 2.06825 15.7033 1.98684C16.0071 1.90542 16.3243 1.88648 16.6357 1.93116C16.9471 1.97584 17.2461 2.08321 17.5148 2.24678C17.7835 2.41035 18.0162 2.62672 18.1989 2.8828C18.3816 3.13888 18.5104 3.42935 18.5777 3.73665L27.7814 38.0854C27.941 38.681 27.8575 39.3157 27.5493 39.8499C27.2411 40.384 26.7334 40.7739 26.1378 40.9339L26.1427 40.9326Z" fill="#EDEDED"/>
</g>
</svg>
