<svg width="378" height="256" viewBox="0 0 378 256" fill="none" xmlns="http://www.w3.org/2000/svg">
<path d="M200.959 173.098C198.856 173.662 196.615 173.367 194.729 172.279C192.844 171.191 191.467 169.399 190.903 167.296L166.91 77.7531C166.458 75.6901 166.819 73.5324 167.917 71.7286C169.016 69.9247 170.766 68.6132 172.806 68.0666C174.846 67.52 177.018 67.7804 178.871 68.7935C180.724 69.8066 182.116 71.4947 182.756 73.507L206.749 163.05C207.311 165.15 207.017 167.387 205.931 169.271C204.846 171.155 203.057 172.531 200.959 173.098Z" fill="#F5F5F5"/>
<path d="M236.928 180.462C234.825 181.024 232.585 180.729 230.7 179.64C228.814 178.55 227.439 176.757 226.875 174.654L194.383 53.3922C194.046 52.334 193.928 51.2185 194.034 50.1131C194.14 49.0077 194.47 47.9354 195.003 46.9611C195.536 45.9867 196.26 45.1305 197.134 44.4443C198.007 43.7581 199.01 43.2561 200.083 42.9686C201.155 42.6812 202.275 42.6143 203.374 42.7721C204.474 42.9298 205.529 43.3089 206.478 43.8863C207.427 44.4638 208.248 45.2276 208.893 46.1317C209.538 47.0357 209.993 48.0612 210.23 49.1461L237.592 151.264L249.193 131.171L234.576 76.6192C234.182 75.1424 234.208 73.585 234.652 72.1223C235.095 70.6596 235.938 69.3498 237.086 68.3404L264.559 43.9944C265.606 43.0659 266.873 42.4205 268.239 42.1194C269.606 41.8183 271.026 41.8716 272.367 42.2742C273.707 42.6768 274.922 43.4154 275.896 44.4197C276.87 45.424 277.572 46.6608 277.933 48.0125L301.924 137.547C302.375 139.61 302.014 141.768 300.916 143.571C299.818 145.375 298.067 146.687 296.027 147.233C293.987 147.78 291.815 147.52 289.962 146.506C288.109 145.493 286.718 143.805 286.077 141.793L265.523 65.0817L251.801 77.2598L265.981 130.179C266.26 131.221 266.331 132.306 266.191 133.375C266.05 134.444 265.701 135.474 265.162 136.408L241.92 176.632C241.381 177.568 240.663 178.387 239.806 179.045C238.95 179.702 237.972 180.184 236.928 180.462Z" fill="#F5F5F5"/>
<path d="M323.59 123.24C321.488 123.804 319.248 123.509 317.363 122.421C315.477 121.332 314.102 119.54 313.539 117.437L298.046 59.6176C297.595 57.5546 297.956 55.3969 299.054 53.5931C300.152 51.7892 301.903 50.4777 303.943 49.9311C305.983 49.3845 308.155 49.6449 310.008 50.658C311.86 51.6711 313.252 53.3592 313.893 55.3715L329.385 113.191C329.947 115.292 329.652 117.53 328.566 119.414C327.48 121.298 325.69 122.674 323.59 123.24Z" fill="#F5F5F5"/>
<path d="M46.7436 105.085C44.6406 105.649 42.4 105.354 40.5143 104.266C38.6285 103.178 37.252 101.385 36.6874 99.2828L33.9435 89.0423C33.6065 87.9842 33.4877 86.8687 33.5942 85.7633C33.7007 84.6579 34.0303 83.5856 34.563 82.6112C35.0958 81.6368 35.8207 80.7807 36.6938 80.0944C37.5669 79.4082 38.5701 78.9062 39.6428 78.6188C40.7154 78.3314 41.8353 78.2645 42.9345 78.4222C44.0338 78.58 45.0896 78.959 46.0382 79.5365C46.9867 80.1139 47.8083 80.8778 48.4532 81.7818C49.0982 82.6859 49.553 83.7113 49.7903 84.7962L52.5342 95.0367C53.097 97.137 52.8033 99.3748 51.7176 101.259C50.6319 103.143 48.843 104.519 46.7436 105.085Z" fill="#F5F5F5"/>
<path d="M300.506 37.0894C298.404 37.6528 296.163 37.3579 294.278 36.2695C292.393 35.1811 291.018 33.3885 290.454 31.286L287.71 21.0455C287.373 19.9874 287.255 18.8718 287.361 17.7665C287.468 16.6611 287.797 15.5888 288.33 14.6144C288.863 13.64 289.587 12.7838 290.461 12.0976C291.334 11.4114 292.337 10.9094 293.41 10.622C294.482 10.3345 295.602 10.2677 296.701 10.4254C297.801 10.5831 298.856 10.9622 299.805 11.5396C300.754 12.1171 301.575 12.8809 302.22 13.785C302.865 14.689 303.32 15.7145 303.557 16.7994L306.301 27.0398C306.863 29.1409 306.568 31.3789 305.482 33.263C304.395 35.147 302.606 36.5231 300.506 37.0894Z" fill="#F5F5F5"/>
<path d="M350.601 97.1684C348.498 97.7318 346.258 97.4368 344.373 96.3485C342.488 95.2601 341.112 93.4675 340.549 91.3649L334.467 68.6655C334.016 66.6024 334.376 64.4448 335.475 62.6409C336.573 60.837 338.324 59.5256 340.364 58.979C342.403 58.4324 344.575 58.6927 346.428 59.7059C348.281 60.719 349.673 62.4071 350.314 64.4193L356.396 87.1188C356.958 89.2198 356.663 91.4579 355.577 93.3419C354.49 95.226 352.701 96.6021 350.601 97.1684Z" fill="#F5F5F5"/>
<path d="M33.3997 182.162C31.2967 182.726 29.0561 182.431 27.1703 181.343C25.2846 180.255 23.9081 178.463 23.3435 176.36L17.2612 153.661C16.81 151.598 17.1709 149.44 18.269 147.636C19.3672 145.832 21.1181 144.521 23.158 143.974C25.1978 143.428 27.3699 143.688 29.2228 144.701C31.0758 145.714 32.4672 147.402 33.108 149.414L39.1903 172.114C39.7531 174.214 39.4594 176.452 38.3737 178.336C37.288 180.22 35.4991 181.596 33.3997 182.162Z" fill="#F5F5F5"/>
<path d="M115.148 233.498C113.046 234.062 110.806 233.767 108.921 232.678C107.035 231.59 105.66 229.797 105.097 227.695L102.351 217.45C101.9 215.387 102.261 213.229 103.359 211.425C104.457 209.622 106.208 208.31 108.248 207.764C110.288 207.217 112.46 207.477 114.313 208.49C116.166 209.504 117.557 211.192 118.198 213.204L120.943 223.449C121.505 225.55 121.21 227.788 120.124 229.672C119.038 231.556 117.248 232.932 115.148 233.498Z" fill="#F5F5F5"/>
<path d="M305.464 182.503C303.362 183.064 301.123 182.768 299.239 181.68C297.355 180.591 295.98 178.8 295.416 176.699L292.671 166.454C292.22 164.391 292.581 162.233 293.679 160.429C294.777 158.626 296.528 157.314 298.568 156.768C300.608 156.221 302.78 156.481 304.633 157.494C306.486 158.508 307.877 160.196 308.518 162.208L311.263 172.453C311.826 174.554 311.532 176.794 310.444 178.679C309.357 180.563 307.565 181.939 305.464 182.503Z" fill="#F5F5F5"/>
<path d="M211.159 211.165C209.055 211.728 206.813 211.433 204.927 210.344C203.041 209.255 201.665 207.462 201.101 205.358L198.36 195.126C197.908 193.063 198.269 190.905 199.367 189.101C200.466 187.298 202.216 185.986 204.256 185.44C206.296 184.893 208.468 185.153 210.321 186.166C212.174 187.18 213.566 188.868 214.206 190.88L216.95 201.12C217.511 203.22 217.215 205.457 216.13 207.339C215.044 209.222 213.257 210.598 211.159 211.165Z" fill="#F5F5F5"/>
<path d="M110.182 88.0867C108.079 88.6501 105.839 88.3552 103.954 87.2668C102.069 86.1785 100.693 84.3858 100.13 82.2833L97.386 72.0428C97.049 70.9847 96.9302 69.8692 97.0367 68.7638C97.1432 67.6584 97.4728 66.5861 98.0055 65.6117C98.5383 64.6373 99.2631 63.7811 100.136 63.0949C101.009 62.4087 102.013 61.9067 103.085 61.6193C104.158 61.3318 105.278 61.265 106.377 61.4227C107.476 61.5804 108.532 61.9595 109.481 62.537C110.429 63.1144 111.251 63.8783 111.896 64.7823C112.541 65.6864 112.995 66.7118 113.233 67.7967L115.977 78.0371C116.538 80.1382 116.244 82.3762 115.157 84.2603C114.071 86.1443 112.282 87.5205 110.182 88.0867Z" fill="#F5F5F5"/>
<path d="M143.601 212.81C141.499 213.373 139.258 213.078 137.373 211.99C135.488 210.901 134.113 209.109 133.549 207.006L130.804 196.762C130.353 194.698 130.714 192.541 131.812 190.737C132.91 188.933 134.661 187.622 136.701 187.075C138.741 186.528 140.913 186.789 142.766 187.802C144.619 188.815 146.01 190.503 146.651 192.515L149.396 202.76C149.958 204.861 149.663 207.099 148.577 208.983C147.49 210.867 145.701 212.243 143.601 212.81Z" fill="#F5F5F5"/>
<path d="M237.085 54.0831C234.982 54.6466 232.741 54.352 230.855 53.2639C228.97 52.1758 227.593 50.3835 227.029 48.2808L224.285 38.0404C223.948 36.9822 223.829 35.8667 223.935 34.7613C224.042 33.6559 224.372 32.5836 224.904 31.6093C225.437 30.6349 226.162 29.7787 227.035 29.0925C227.908 28.4062 228.911 27.9042 229.984 27.6168C231.057 27.3294 232.177 27.2625 233.276 27.4203C234.375 27.578 235.431 27.9571 236.379 28.5345C237.328 29.112 238.15 29.8758 238.794 30.7799C239.439 31.6839 239.894 32.7094 240.132 33.7942L242.875 44.0347C243.438 46.135 243.145 48.3728 242.059 50.2568C240.973 52.1408 239.184 53.517 237.085 54.0831Z" fill="#F5F5F5"/>
<path d="M270.504 178.806C268.401 179.37 266.161 179.075 264.275 177.987C262.389 176.899 261.013 175.106 260.448 173.004L257.703 162.759C257.252 160.696 257.613 158.538 258.711 156.735C259.809 154.931 261.56 153.619 263.6 153.073C265.64 152.526 267.812 152.786 269.665 153.799C271.518 154.813 272.909 156.501 273.55 158.513L276.295 168.758C276.858 170.858 276.564 173.096 275.478 174.98C274.392 176.864 272.604 178.24 270.504 178.806Z" fill="#F5F5F5"/>
<path d="M173.49 197.461C172.448 197.74 171.361 197.812 170.291 197.671C169.221 197.529 168.19 197.179 167.256 196.638L127.038 173.418C126.104 172.879 125.286 172.162 124.63 171.306C123.974 170.451 123.493 169.475 123.214 168.434L109.032 115.506L91.0599 111.82L111.617 188.54C112.068 190.603 111.707 192.76 110.609 194.564C109.511 196.368 107.76 197.68 105.72 198.226C103.68 198.773 101.508 198.512 99.6552 197.499C97.8023 196.486 96.4109 194.798 95.7701 192.786L71.7771 103.243C71.4194 101.895 71.4111 100.477 71.7532 99.1252C72.0952 97.7729 72.7763 96.5301 73.7321 95.5141C74.6879 94.4981 75.8868 93.7425 77.2157 93.3186C78.5447 92.8947 79.9597 92.8165 81.3272 93.0914L117.301 100.437C118.795 100.742 120.175 101.457 121.285 102.502C122.395 103.547 123.193 104.881 123.587 106.354L138.202 160.897L158.295 172.498L130.936 70.393C130.599 69.3348 130.48 68.2193 130.587 67.1139C130.693 66.0085 131.023 64.9362 131.556 63.9619C132.088 62.9875 132.813 62.1313 133.686 61.4451C134.56 60.7588 135.563 60.2568 136.635 59.9694C137.708 59.682 138.828 59.6151 139.927 59.7729C141.026 59.9306 142.082 60.3097 143.031 60.8871C143.979 61.4646 144.801 62.2284 145.446 63.1325C146.091 64.0365 146.546 65.062 146.783 66.1468L179.275 187.409C179.839 189.512 179.544 191.753 178.456 193.638C177.368 195.524 175.575 196.901 173.473 197.465L173.49 197.461Z" fill="#F5F5F5"/>
<path d="M69.8276 191.236C67.7246 191.799 65.484 191.505 63.5982 190.417C61.7125 189.329 60.336 187.536 59.7714 185.434L44.2787 127.614C43.8275 125.551 44.1885 123.394 45.2866 121.59C46.3847 119.786 48.1356 118.474 50.1755 117.928C52.2154 117.381 54.3875 117.641 56.2404 118.655C58.0934 119.668 59.4848 121.356 60.1255 123.368L75.6182 181.187C76.181 183.288 75.8873 185.526 74.8016 187.41C73.7159 189.294 71.927 190.67 69.8276 191.236Z" fill="#F5F5F5"/>
</svg>
