<svg width="23" height="17" viewBox="0 0 23 17" fill="none" xmlns="http://www.w3.org/2000/svg">
<path d="M18.5382 8.82675C18.3637 8.82537 18.1947 8.76552 18.0582 8.65675C16.104 7.08465 13.6712 6.22757 11.1632 6.22757C8.65513 6.22757 6.22238 7.08465 4.26819 8.65675C4.10319 8.78254 3.89532 8.83836 3.6895 8.81217C3.48368 8.78597 3.29642 8.67986 3.16819 8.51675C3.0479 8.35155 2.99538 8.14659 3.02141 7.9439C3.04745 7.74122 3.15006 7.55618 3.30819 7.42675C5.53042 5.63534 8.29882 4.65845 11.1532 4.65845C14.0076 4.65845 16.776 5.63534 18.9982 7.42675C19.0809 7.48767 19.1504 7.56472 19.2025 7.65325C19.2545 7.74177 19.2881 7.83994 19.3012 7.94182C19.3143 8.04369 19.3066 8.14716 19.2786 8.24598C19.2506 8.3448 19.2028 8.43691 19.1382 8.51675C19.07 8.61232 18.9799 8.69028 18.8756 8.74419C18.7713 8.79809 18.6556 8.82639 18.5382 8.82675Z" fill="#AA3939"/>
<path d="M21.5581 5.20681C21.3831 5.20871 21.213 5.14847 21.0781 5.03681C18.2663 2.77994 14.7687 1.54988 11.1631 1.54988C7.5576 1.54988 4.05996 2.77994 1.24813 5.03681C1.08635 5.16278 0.881147 5.21933 0.67767 5.19402C0.474193 5.1687 0.289108 5.06359 0.16313 4.90181C0.0371519 4.74002 -0.0193986 4.53482 0.00591883 4.33135C0.0312362 4.12787 0.136348 3.94278 0.29813 3.81681C3.37483 1.34647 7.20241 0 11.1481 0C15.0938 0 18.9214 1.34647 21.9981 3.81681C22.0789 3.87933 22.1465 3.95731 22.1968 4.04621C22.2472 4.1351 22.2794 4.23313 22.2915 4.33457C22.3036 4.43602 22.2954 4.53886 22.2673 4.63711C22.2393 4.73535 22.192 4.82703 22.1281 4.90681C22.0619 4.99654 21.9762 5.07013 21.8775 5.12208C21.7788 5.17403 21.6696 5.20299 21.5581 5.20681Z" fill="#AA3939"/>
<path d="M8.99824 13.1268L10.9982 11.1268C11.1189 11.0061 11.1867 10.8424 11.1867 10.6718C11.1867 10.5011 11.1189 10.3375 10.9982 10.2168C10.8776 10.0961 10.7139 10.0283 10.5432 10.0283C10.3726 10.0283 10.2089 10.0961 10.0882 10.2168L8.08824 12.2168L6.08824 10.2168C5.96703 10.1001 5.80475 10.0359 5.63653 10.0379C5.4683 10.04 5.30766 10.1082 5.18935 10.2278C5.07105 10.3475 5.0046 10.5088 5.0044 10.6771C5.00419 10.8453 5.07023 11.0069 5.18824 11.1268L7.18824 13.1268L5.18824 15.1268C5.08899 15.2497 5.03871 15.405 5.0471 15.5628C5.05548 15.7206 5.12193 15.8697 5.23365 15.9814C5.34537 16.0931 5.49446 16.1595 5.65224 16.1679C5.81001 16.1763 5.96531 16.126 6.08824 16.0268L8.08824 14.0268L10.0882 16.0268C10.2081 16.1448 10.3697 16.2108 10.5379 16.2106C10.7062 16.2104 10.8676 16.144 10.9872 16.0257C11.1068 15.9074 11.175 15.7467 11.1771 15.5785C11.1792 15.4103 11.1149 15.248 10.9982 15.1268L8.99824 13.1268Z" fill="#AA3939"/>
<path d="M8.18817 14.8867L7.99818 14.9867C7.83507 15.1193 7.73132 15.3113 7.70975 15.5204C7.68818 15.7295 7.75057 15.9386 7.88318 16.1017C8.01578 16.2648 8.20776 16.3686 8.41686 16.3901C8.62596 16.4117 8.83507 16.3493 8.99818 16.2167C9.09665 16.1337 9.20018 16.0569 9.30818 15.9867L8.18817 14.8867Z" fill="#AA3939"/>
<path d="M14.328 14.9867C13.7885 14.5732 13.1718 14.2717 12.514 14.1C11.8563 13.9283 11.1709 13.8898 10.498 13.9867L11.268 14.7667C11.4726 14.9716 11.5908 15.2473 11.598 15.5367C12.252 15.6187 12.871 15.878 13.388 16.2867C13.5255 16.3926 13.6946 16.449 13.868 16.4467C13.9846 16.4475 14.0997 16.4208 14.204 16.3686C14.3083 16.3165 14.3987 16.2405 14.468 16.1467C14.5446 16.0657 14.6024 15.9687 14.6373 15.8628C14.6722 15.7569 14.6833 15.6446 14.67 15.5339C14.6566 15.4232 14.619 15.3168 14.56 15.2222C14.5009 15.1277 14.4217 15.0473 14.328 14.9867Z" fill="#AA3939"/>
<path d="M17.0481 11.2267C15.6236 10.074 13.892 9.36474 12.0682 9.18697C10.2443 9.00921 8.40838 9.37073 6.78809 10.2267L7.99809 11.4367L8.22809 11.3467L9.65809 9.88669C9.87544 9.68061 10.1636 9.56574 10.4631 9.56574C10.7626 9.56574 11.0507 9.68061 11.2681 9.88669C11.3755 9.99251 11.4609 10.1186 11.5192 10.2576C11.5776 10.3967 11.6078 10.5459 11.6081 10.6967C11.6081 10.6967 11.6081 10.6967 11.6081 10.7567C13.2459 10.8454 14.8168 11.4354 16.1081 12.4467C16.2429 12.5584 16.413 12.6186 16.5881 12.6167C16.7048 12.6183 16.8202 12.5919 16.9246 12.5397C17.029 12.4875 17.1193 12.411 17.1881 12.3167C17.2514 12.2363 17.298 12.1441 17.3253 12.0455C17.3525 11.9469 17.3598 11.8438 17.3468 11.7423C17.3338 11.6408 17.3006 11.543 17.2493 11.4544C17.1981 11.3659 17.1296 11.2885 17.0481 11.2267Z" fill="#AA3939"/>
</svg>
