<svg width="20" height="20" viewBox="0 0 20 20" fill="none" xmlns="http://www.w3.org/2000/svg">
<path d="M8.35394 17.5924V2.06391C8.35394 0.589689 7.73149 0 6.15898 0H2.19496C0.62245 0 0 0.589689 0 2.06391V17.5924C0 19.0666 0.62245 19.6563 2.19496 19.6563H6.15898C7.73149 19.6563 8.35394 19.0666 8.35394 17.5924Z" fill="white"/>
<path d="M19.6581 17.5924V2.06391C19.6581 0.589689 19.0357 0 17.4632 0H13.4992C11.9376 0 11.3042 0.589689 11.3042 2.06391V17.5924C11.3042 19.0666 11.9266 19.6563 13.4992 19.6563H17.4632C19.0357 19.6563 19.6581 19.0666 19.6581 17.5924Z" fill="white"/>
</svg>
