<svg width="22" height="19" viewBox="0 0 22 19" fill="none" xmlns="http://www.w3.org/2000/svg">
<path d="M21.0778 15.8884C21.0778 15.8668 21.067 15.8452 21.067 15.8236C21.0562 15.7371 21.0454 15.6507 21.0129 15.575C20.9697 15.4777 20.9157 15.402 20.8508 15.3264C20.8508 15.3264 20.8508 15.3156 20.84 15.3156C20.7643 15.2399 20.6779 15.1859 20.5806 15.1426C20.4833 15.0994 20.3752 15.0778 20.2671 15.0778L15.2194 15.0994C15.2194 15.0994 15.2194 15.0994 15.2086 15.0994C14.5601 15.0994 13.9332 14.7968 13.5441 14.2779L12.2254 12.581C11.9552 12.2243 11.4472 12.1594 11.0905 12.4404C10.7338 12.7215 10.6689 13.2187 10.95 13.5754L12.2686 15.2723C12.9712 16.1803 14.0737 16.7207 15.2194 16.7207H15.2302L18.3108 16.7099L17.5433 17.4773C17.2299 17.7908 17.2299 18.3096 17.5433 18.6231C17.7055 18.7852 17.9108 18.8609 18.1162 18.8609C18.3216 18.8609 18.5269 18.7852 18.6891 18.6231L20.8508 16.4613C20.9265 16.3857 20.9805 16.2992 21.0238 16.2019C21.0562 16.0938 21.0778 15.9857 21.0778 15.8884Z" fill="#BFBFBF"/>
<path d="M6.66903 3.68628C5.96646 2.71349 4.84234 2.14062 3.64256 2.14062C3.63176 2.14062 3.63176 2.14062 3.62095 2.14062L0.81066 2.15143C0.367499 2.15143 0 2.51893 0 2.96209C0 3.40525 0.367499 3.77275 0.81066 3.77275L3.63176 3.76194H3.64256C4.32352 3.76194 4.96124 4.08621 5.35035 4.63746L6.5177 6.25878C6.67984 6.47495 6.92844 6.59385 7.17704 6.59385C7.33917 6.59385 7.51211 6.5398 7.65263 6.44253C8.02013 6.17231 8.09579 5.66429 7.83638 5.3076L6.66903 3.68628Z" fill="#BFBFBF"/>
<path d="M21.0663 3.02376C21.0663 3.00214 21.0772 2.98053 21.0772 2.96972C21.0772 2.86163 21.0555 2.75354 21.0123 2.65626C20.9691 2.55898 20.915 2.47251 20.8394 2.39685L18.6776 0.235091C18.3641 -0.0783638 17.8453 -0.0783638 17.5319 0.235091C17.2184 0.548546 17.2184 1.06737 17.5319 1.38082L18.2993 2.14825L15.3485 2.13744C15.3377 2.13744 15.3377 2.13744 15.3269 2.13744C14.0839 2.13744 12.9165 2.75354 12.2247 3.80199L5.31793 14.1568C4.92881 14.7404 4.26947 15.0971 3.5669 15.0971H3.55609L0.81066 15.0755C0.367499 15.0755 0 15.4322 0 15.8862C0 16.3293 0.35669 16.6968 0.81066 16.6968L3.5669 16.7076H3.58852C4.84234 16.7076 5.99888 16.0916 6.69064 15.0432L13.5975 4.68832C13.9866 4.10464 14.6459 3.74795 15.3485 3.74795H15.3593L20.2665 3.76957C20.3746 3.76957 20.4719 3.74795 20.58 3.70471C20.6772 3.66148 20.7637 3.60744 20.8394 3.53177C20.8394 3.53177 20.8394 3.52097 20.8502 3.52097C20.915 3.4453 20.9799 3.36964 21.0123 3.27236C21.0447 3.1967 21.0555 3.11023 21.0663 3.02376Z" fill="#BFBFBF"/>
</svg>
