<svg width="23" height="22" viewBox="0 0 23 22" fill="none" xmlns="http://www.w3.org/2000/svg">
<path d="M11.3615 14.7309C9.17377 14.7309 7.39819 12.9553 7.39819 10.7675C7.39819 8.57977 9.17377 6.8042 11.3615 6.8042C13.5493 6.8042 15.3249 8.57977 15.3249 10.7675C15.3249 12.9553 13.5493 14.7309 11.3615 14.7309ZM11.3615 8.38953C10.051 8.38953 8.98353 9.45699 8.98353 10.7675C8.98353 12.0781 10.051 13.1455 11.3615 13.1455C12.6721 13.1455 13.7395 12.0781 13.7395 10.7675C13.7395 9.45699 12.6721 8.38953 11.3615 8.38953Z" fill="white"/>
<path d="M14.7542 21.537C14.5322 21.537 14.3103 21.5053 14.0883 21.4525C13.433 21.2728 12.8835 20.8606 12.5347 20.2793L12.4079 20.068C11.7843 18.9899 10.9282 18.9899 10.3047 20.068L10.1884 20.2688C9.83963 20.8606 9.29004 21.2834 8.63477 21.4525C7.96893 21.6322 7.28196 21.537 6.70067 21.1883L4.88282 20.1419C4.23812 19.772 3.77309 19.1696 3.57228 18.4404C3.38204 17.7111 3.47716 16.9607 3.84707 16.316C4.15357 15.777 4.23812 15.2908 4.05845 14.9843C3.87878 14.6778 3.42432 14.4982 2.80075 14.4982C1.2577 14.4982 0 13.2405 0 11.6974V9.83729C0 8.29423 1.2577 7.03653 2.80075 7.03653C3.42432 7.03653 3.87878 6.85686 4.05845 6.55036C4.23812 6.24387 4.16414 5.7577 3.84707 5.21869C3.47716 4.57399 3.38204 3.81303 3.57228 3.09434C3.76252 2.36509 4.22755 1.76266 4.88282 1.39275L6.71124 0.346434C7.90552 -0.361681 9.48028 0.0505048 10.199 1.26593L10.3258 1.4773C10.9494 2.55533 11.8054 2.55533 12.429 1.4773L12.5453 1.27649C13.2639 0.0505048 14.8387 -0.361681 16.0436 0.357002L17.8614 1.40332C18.5061 1.77323 18.9711 2.37566 19.1719 3.10491C19.3622 3.83416 19.2671 4.58455 18.8972 5.22926C18.5907 5.76827 18.5061 6.25444 18.6858 6.56093C18.8654 6.86743 19.3199 7.0471 19.9435 7.0471C21.4865 7.0471 22.7442 8.3048 22.7442 9.84786V11.708C22.7442 13.251 21.4865 14.5087 19.9435 14.5087C19.3199 14.5087 18.8654 14.6884 18.6858 14.9949C18.5061 15.3014 18.5801 15.7876 18.8972 16.3266C19.2671 16.9713 19.3728 17.7322 19.1719 18.4509C18.9817 19.1802 18.5167 19.7826 17.8614 20.1525L16.033 21.1988C15.6314 21.4208 15.198 21.537 14.7542 21.537ZM11.3615 17.6265C12.3022 17.6265 13.1794 18.2184 13.7818 19.2647L13.8981 19.4655C14.0249 19.6875 14.2363 19.846 14.4899 19.9094C14.7436 19.9728 14.9972 19.9411 15.2086 19.8143L17.037 18.7574C17.3118 18.5989 17.5232 18.3347 17.6078 18.0176C17.6923 17.7005 17.65 17.3729 17.4915 17.0981C16.8891 16.0624 16.8151 14.9949 17.2801 14.1811C17.7451 13.3673 18.7069 12.9023 19.9118 12.9023C20.5882 12.9023 21.1272 12.3632 21.1272 11.6868V9.82672C21.1272 9.16088 20.5882 8.6113 19.9118 8.6113C18.7069 8.6113 17.7451 8.14627 17.2801 7.33246C16.8151 6.51866 16.8891 5.4512 17.4915 4.41545C17.65 4.14066 17.6923 3.81303 17.6078 3.49596C17.5232 3.17889 17.3224 2.92524 17.0476 2.75614L15.2192 1.70982C14.7647 1.43503 14.1623 1.59356 13.8875 2.05859L13.7712 2.2594C13.1688 3.30572 12.2916 3.89758 11.351 3.89758C10.4103 3.89758 9.53313 3.30572 8.9307 2.2594L8.81444 2.04802C8.55022 1.60413 7.95837 1.4456 7.5039 1.70982L5.67549 2.76671C5.4007 2.92524 5.18932 3.18946 5.10477 3.50653C5.02022 3.82359 5.06249 4.15123 5.22103 4.42602C5.82345 5.46177 5.89743 6.52923 5.4324 7.34303C4.96737 8.15683 4.00561 8.62187 2.80075 8.62187C2.12434 8.62187 1.58533 9.16088 1.58533 9.83729V11.6974C1.58533 12.3632 2.12434 12.9128 2.80075 12.9128C4.00561 12.9128 4.96737 13.3779 5.4324 14.1917C5.89743 15.0055 5.82345 16.0729 5.22103 17.1087C5.06249 17.3835 5.02022 17.7111 5.10477 18.0282C5.18932 18.3452 5.39013 18.5989 5.66492 18.768L7.49334 19.8143C7.71528 19.9517 7.9795 19.9834 8.22259 19.92C8.47624 19.8566 8.68762 19.6875 8.82501 19.4655L8.94127 19.2647C9.5437 18.229 10.4209 17.6265 11.3615 17.6265Z" fill="white"/>
</svg>
