<svg width="19" height="20" viewBox="0 0 19 20" fill="none" xmlns="http://www.w3.org/2000/svg">
<path d="M14.6321 19.2595C16.1656 19.2595 17.4086 18.0165 17.4086 16.4831C17.4086 14.9497 16.1656 13.7067 14.6321 13.7067C13.0987 13.7067 11.8557 14.9497 11.8557 16.4831C11.8557 18.0165 13.0987 19.2595 14.6321 19.2595Z" stroke="white" stroke-width="1.5" stroke-linecap="round" stroke-linejoin="round"/>
<path d="M14.6321 6.30285C16.1656 6.30285 17.4086 5.0598 17.4086 3.52643C17.4086 1.99305 16.1656 0.75 14.6321 0.75C13.0987 0.75 11.8557 1.99305 11.8557 3.52643C11.8557 5.0598 13.0987 6.30285 14.6321 6.30285Z" stroke="white" stroke-width="1.5" stroke-linecap="round" stroke-linejoin="round"/>
<path d="M3.52643 12.7812C5.0598 12.7812 6.30285 11.5382 6.30285 10.0048C6.30285 8.4714 5.0598 7.22839 3.52643 7.22839C1.99305 7.22839 0.75 8.4714 0.75 10.0048C0.75 11.5382 1.99305 12.7812 3.52643 12.7812Z" stroke="white" stroke-width="1.5" stroke-linecap="round" stroke-linejoin="round"/>
<path d="M12.3184 4.91455L5.84009 8.61645" stroke="white" stroke-width="1.5"/>
<path d="M5.84009 11.3929L12.3184 15.0948" stroke="white" stroke-width="1.5"/>
</svg>
