<svg width="20" height="17" viewBox="0 0 20 17" fill="none" xmlns="http://www.w3.org/2000/svg">
<path d="M5.14934 1.98365L5.14934 15.6659C5.14934 16.1015 4.78816 16.4626 4.35262 16.4626C3.91709 16.4626 3.55591 16.1015 3.55591 15.6659L3.55591 1.98365C3.55591 1.54811 3.91709 1.18693 4.35262 1.18693C4.78816 1.18693 5.14934 1.53749 5.14934 1.98365Z" fill="white"/>
<path d="M8.70812 4.35279C8.70812 4.55462 8.63376 4.75646 8.47442 4.9158C8.16636 5.22387 7.65646 5.22387 7.34839 4.9158L4.35274 1.92015L1.35707 4.9158C1.04901 5.22387 0.539112 5.22387 0.231048 4.9158C-0.077016 4.60774 -0.077016 4.09784 0.231048 3.78978L3.78973 0.231107C4.09779 -0.0769569 4.60769 -0.076957 4.91575 0.231107L8.47442 3.78978C8.63376 3.94912 8.70812 4.15095 8.70812 4.35279Z" fill="white"/>
<path d="M14.8548 14.479L14.8548 0.796717C14.8548 0.361178 15.216 -5.38636e-08 15.6515 -3.48256e-08C16.0871 -1.57876e-08 16.4482 0.361178 16.4482 0.796717L16.4482 14.479C16.4482 14.9145 16.0871 15.2757 15.6515 15.2757C15.216 15.2757 14.8548 14.9252 14.8548 14.479Z" fill="white"/>
<path d="M11.296 12.1099C11.296 11.908 11.3704 11.7062 11.5297 11.5468C11.8378 11.2388 12.3477 11.2388 12.6558 11.5468L15.6514 14.5425L18.6471 11.5468C18.9551 11.2388 19.465 11.2388 19.7731 11.5468C20.0812 11.8549 20.0812 12.3648 19.7731 12.6729L16.2144 16.2315C15.9064 16.5396 15.3965 16.5396 15.0884 16.2315L11.5297 12.6729C11.3704 12.5135 11.296 12.3117 11.296 12.1099Z" fill="white"/>
</svg>
