<svg width="20" height="17" viewBox="0 0 20 17" fill="none" xmlns="http://www.w3.org/2000/svg">
<path d="M5.14934 1.98365L5.14934 15.6659C5.14934 16.1015 4.78816 16.4626 4.35262 16.4626C3.91709 16.4626 3.55591 16.1015 3.55591 15.6659L3.55591 1.98365C3.55591 1.54811 3.91709 1.18693 4.35262 1.18693C4.78816 1.18693 5.14934 1.53749 5.14934 1.98365Z" fill="#666666"/>
<path d="M8.70812 4.35267C8.70812 4.5545 8.63376 4.75634 8.47442 4.91568C8.16636 5.22374 7.65646 5.22374 7.34839 4.91568L4.35274 1.92002L1.35707 4.91568C1.04901 5.22374 0.539112 5.22374 0.231048 4.91568C-0.077016 4.60762 -0.077016 4.09772 0.231048 3.78965L3.78973 0.230985C4.09779 -0.077079 4.60769 -0.077079 4.91575 0.230985L8.47442 3.78965C8.63376 3.949 8.70812 4.15083 8.70812 4.35267Z" fill="#666666"/>
<path d="M14.8548 14.479L14.8548 0.796717C14.8548 0.361178 15.216 -5.38636e-08 15.6515 -3.48256e-08C16.0871 -1.57876e-08 16.4482 0.361178 16.4482 0.796717L16.4482 14.479C16.4482 14.9145 16.0871 15.2757 15.6515 15.2757C15.216 15.2757 14.8548 14.9252 14.8548 14.479Z" fill="#666666"/>
<path d="M11.296 12.11C11.296 11.9081 11.3704 11.7063 11.5297 11.547C11.8378 11.2389 12.3477 11.2389 12.6558 11.547L15.6514 14.5426L18.6471 11.547C18.9551 11.2389 19.465 11.2389 19.7731 11.547C20.0812 11.855 20.0812 12.3649 19.7731 12.673L16.2144 16.2317C15.9064 16.5397 15.3965 16.5397 15.0884 16.2317L11.5297 12.673C11.3704 12.5136 11.296 12.3118 11.296 12.11Z" fill="#666666"/>
</svg>
