<svg width="23" height="17" viewBox="0 0 23 17" fill="none" xmlns="http://www.w3.org/2000/svg">
<path d="M18.5351 8.83638C18.3688 8.83638 18.2025 8.78442 18.057 8.6701C13.8688 5.43801 8.45432 5.43801 4.26611 8.6701C3.92316 8.92992 3.4347 8.86756 3.17489 8.535C2.91508 8.19205 2.97743 7.70359 3.30999 7.44378C8.08018 3.75442 14.243 3.75442 19.0028 7.44378C19.3457 7.70359 19.4081 8.19205 19.1379 8.535C19.0028 8.73246 18.7741 8.83638 18.5351 8.83638Z" fill="#666666"/>
<path d="M21.559 5.21967C21.3927 5.21967 21.2265 5.16774 21.081 5.05342C15.0533 0.397547 7.26925 0.397547 1.25196 5.05342C0.90901 5.31323 0.420549 5.25087 0.160734 4.9183C-0.0990801 4.57535 -0.0367349 4.08688 0.295827 3.82706C6.89511 -1.27569 15.4274 -1.27569 22.0371 3.82706C22.38 4.08688 22.4424 4.57535 22.1722 4.9183C22.0267 5.11576 21.7877 5.21967 21.559 5.21967Z" fill="#666666"/>
<path d="M16.58 12.6297C16.4137 12.6297 16.2475 12.5778 16.102 12.4635C13.1089 10.1459 9.23247 10.1459 6.229 12.4635C5.88605 12.7233 5.3976 12.6609 5.13778 12.3284C4.87797 11.9854 4.94032 11.497 5.27288 11.2371C8.84793 8.47271 13.4726 8.47271 17.0477 11.2371C17.3906 11.497 17.453 11.9854 17.1828 12.3284C17.0373 12.5258 16.8087 12.6297 16.58 12.6297Z" fill="#666666"/>
<path d="M13.8671 16.4335C13.7009 16.4335 13.5346 16.3815 13.3891 16.2672C12.0381 15.2175 10.2817 15.2175 8.93068 16.2672C8.58772 16.527 8.09926 16.4646 7.83944 16.1321C7.57963 15.7891 7.64198 15.3007 7.97454 15.0409C9.90758 13.5443 12.4018 13.5443 14.3348 15.0409C14.6778 15.3007 14.7401 15.7891 14.4699 16.1321C14.3348 16.3191 14.1062 16.4335 13.8671 16.4335Z" fill="#666666"/>
</svg>
